<svg version="1.1"
     baseProfile="full"
     width="592" height="490"
     xmlns="http://www.w3.org/2000/svg"
     >
    <defs>
        <linearGradient id="grad" gradientUnits="userSpaceOnUse" x1="0%" y1="0%" x2="0%" y2="100%">
            <stop offset="0" stop-color="#ffffff"/>
            <stop offset="1" stop-color="#8dedf7"/>
        </linearGradient>
        <linearGradient id="grad2" gradientUnits="userSpaceOnUse" x1="0%" y1="0%" x2="0%" y2="100%">
            <stop offset="0" stop-color="#ffffff"/>
            <stop offset="0.5" stop-color="#8dedf7"/>
            <stop offset="1" stop-color="#ffffff"/>
        </linearGradient>
		<style type="text/css">
			<![CDATA[
			#backbox {
				//fill:	rgba(188,187,181,0.8);
                fill:   url(#grad2);
			}
            .bar {
                fill: rgba(0,0,0,1);
            }
			]]>
		</style>
	</defs>

	<!--  Grey semi-transparent box in the background  .-->
    <rect id="backbox" width="100%" height="100%" />

    
    <!-- ########### AXES ########## -->
    <g stroke="black">
        <!-- Y axis -->
        <line id="axisx" x1="74" y1="70" x2="74" y2="420" />
        <!-- X axis -->
        <line id="axisy" x1="74" y1="420" x2="518" y2="420" />
    </g>


    <!-- ########### BARS ########## -->

    <!-- First bar - 2010 data TODO find actual height-->
    <rect class="bar" x="111" y="390" width="74" height="30" />
    <!-- Second bar - 2011 data -->
    <rect class="bar" x="222" y="350" width="74" height="70" />
    <!-- Third bar - 2012 data -->
    <rect class="bar" x="333" y="183.75" width="74" height="236.25" />
    <!-- Fourth bar - 2013 data -->
    <rect class="bar" x="444" y="70" width="74" height="350" />

    <!-- ###### X-AXIS LABELS ###### -->

    <!-- 2010 bar label -->
    <text id="lbl2010" x="130" y="437.5">2010</text>

    <!-- 2011 bar label -->
    <text id="lbl2011" x="241" y="437.5">2011</text>

    <!-- 2012 bar label -->
    <text id="lbl2012" x="352" y="437.5">2012</text>

    <!-- 2013 bar label -->
    <text id="lbl2010" x="463" y="437.5">2013</text>

    <!-- ####### GRADUATIONS ######## -->

    <line id="100" x1="74" y1="350" x2="518" y2="350" stroke="black" />

    <line id="200" x1="74" y1="280" x2="518" y2="280" stroke="black" />

    <line id="300" x1="74" y1="210" x2="518" y2="210" stroke="black" />

    <line id="400" x1="74" y1="140" x2="518" y2="140" stroke="black" />

    <line id="500" x1="74" y1="70" x2="518" y2="70" stroke="black" />

    <!-- #### GRADUATION LABELS ##### -->
    <text id="lbl100" x="45" y="355">100</text>

    <text id="lbl200" x="45" y="285">200</text>

    <text id="lbl300" x="45" y="215">300</text>
    
    <text id="lbl400" x="45" y="145">400</text>

    <text id="lbl500" x="45" y="75">500</text>
</svg>