<?xml version="1.0" standalone="no"?>
<svg width="400" height="1000" version="1.1" xmlns="http://www.w3.org/2000/svg">
	<defs>
		<linearGradient id="grad1" y2="1" x2="1" x1="0" y1="1">
			<stop stop-color="rgb(255, 181, 127)" offset="0"/>
			<stop stop-color="rgb(255, 200, 243)" offset="1"/>
		</linearGradient>

		<style type="text/css">
			<![CDATA[
				#backgroundBox {
					stroke: 		blue;
					fill:			rgba(10,10,10,0.4);
       			    stroke-opacity: 0.8;
				}
				#backgroundBox:hover {
					stroke: 	green;
					transform:  translate(45,45);
				}
				#gradRect { 
					fill: url(#grad1); 
				}
			]]>
		</style>
	</defs>
	<rect x="10" y="10" width="30" height="30" stroke="black" fill="transparent" stroke-width="5"/>

	<rect x="60" y="10" rx="10" ry="10" width="30" height="30" stroke="black" fill="transparent" stroke-width="5"/>

	<circle cx="25" cy="75" r="20" stroke="red" fill="transparent" stroke-width="5"/>

	<ellipse cx="75" cy="75" rx="20" ry="5" stroke="red" fill="transparent" stroke-width="5"/>

	<line x1="10" x2="50" y1="110" y2="150" stroke="orange" fill="transparent" stroke-width="5"/>
	  
	<polyline points="60 110 65 120 70 115 75 130 80 125 85 140 90 135 95 150 100 145" stroke="orange" fill="transparent" stroke-width="5"/>

	<polygon points="50 160 55 180 70 180 60 190 65 205 50 195 35 205 40 190 30 180 45 180" stroke="green" fill="transparent" stroke-width="5"/>

	<comment>
		M='Move To' 
		L='Line To' 
		Z='Close Path' -- Straight line from current pos to starting pos.
		lowercase = Relative positions.
		UPPERCASE = Position on grid.
	</comment>
	<path d="M20,230 Q40,205 50,230 T90,230" fill="none" stroke="blue" stroke-width="5"/>

	<rect id="backgroundBox" x="3" y="5" width="100" height="250" />

    <line x1="40" x2="120" y1="270" y2="270" stroke="black" stroke-width="20" stroke-linecap="butt"/>
    <line x1="40" x2="120" y1="310" y2="310" stroke="black" stroke-width="20" stroke-linecap="square"/>
  	<line x1="40" x2="120" y1="350" y2="350" stroke="black" stroke-width="20" stroke-linecap="round"/>

  	<rect id="gradRect" x="150" y="50" width="100" height="100"/>
</svg>